<?xml version="1.0" encoding="UTF-8" standalone="no"?>
<!-- Created with Inkscape (http://www.inkscape.org/) -->

<svg
   xmlns:dc="http://purl.org/dc/elements/1.1/"
   xmlns:cc="http://creativecommons.org/ns#"
   xmlns:rdf="http://www.w3.org/1999/02/22-rdf-syntax-ns#"
   xmlns:svg="http://www.w3.org/2000/svg"
   xmlns="http://www.w3.org/2000/svg"
   xmlns:sodipodi="http://sodipodi.sourceforge.net/DTD/sodipodi-0.dtd"
   xmlns:inkscape="http://www.inkscape.org/namespaces/inkscape"
   width="5.6814427mm"
   height="5.4884505mm"
   viewBox="0 0 20.131096 19.447266"
   id="svg5546"
   version="1.1"
   inkscape:version="0.91 r13725"
   sodipodi:docname="actual_size.svg">
  <defs
     id="defs5548" />
  <sodipodi:namedview
     id="base"
     pagecolor="#ffffff"
     bordercolor="#666666"
     borderopacity="1.0"
     inkscape:pageopacity="0.0"
     inkscape:pageshadow="2"
     inkscape:zoom="0.35"
     inkscape:cx="-129.22017"
     inkscape:cy="224.00934"
     inkscape:document-units="px"
     inkscape:current-layer="layer1"
     showgrid="false"
     fit-margin-top="0"
     fit-margin-left="0"
     fit-margin-right="0"
     fit-margin-bottom="0"
     inkscape:window-width="1280"
     inkscape:window-height="634"
     inkscape:window-x="-8"
     inkscape:window-y="-8"
     inkscape:window-maximized="1" />
  <metadata
     id="metadata5551">
    <rdf:RDF>
      <cc:Work
         rdf:about="">
        <dc:format>image/svg+xml</dc:format>
        <dc:type
           rdf:resource="http://purl.org/dc/dcmitype/StillImage" />
        <dc:title></dc:title>
      </cc:Work>
    </rdf:RDF>
  </metadata>
  <g
     inkscape:label="Layer 1"
     inkscape:groupmode="layer"
     id="layer1"
     transform="translate(-504.22017,-736.92428)">
    <path
       inkscape:connector-curvature="0"
       style="opacity:0.88500001;fill:#000000;fill-opacity:1;fill-rule:evenodd;stroke:none;stroke-width:1px;stroke-linecap:butt;stroke-linejoin:miter;stroke-opacity:1"
       d="m 509.62285,736.9243 c -1.14735,8.4e-4 -3.50501,0.0148 -4.65235,0.0156 -0.46457,0.0217 -0.76169,0.34831 -0.75,0.70899 0.002,1.15071 0.0312,3.49772 0.0332,4.64844 0.0238,0.50389 0.64715,0.82004 1.10547,0.4082 l 1.5,-1.49024 3.69336,3.70899 1.66797,-1.66797 -3.6914,-3.69727 1.5371,-1.58593 c 0.33452,-0.33917 0.0335,-1.05035 -0.44335,-1.04883 z"
       id="path8791" />
    <path
       style="opacity:0.88500001;fill:#000000;fill-opacity:1;fill-rule:evenodd;stroke:none;stroke-width:1px;stroke-linecap:butt;stroke-linejoin:miter;stroke-opacity:1"
       d="m 518.94877,736.9244 c 1.14733,8.5e-4 3.50555,0.0148 4.65289,0.0156 0.46456,0.0217 0.76096,0.34775 0.74927,0.70843 -0.002,1.15073 -0.03,3.49813 -0.0321,4.64885 -0.0238,0.5039 -0.64717,0.82062 -1.10548,0.40878 l -1.5003,-1.49071 -3.69402,3.70966 -1.6678,-1.66874 3.69219,-3.69649 -1.53759,-1.58711 c -0.33451,-0.33917 -0.0339,-1.04973 0.4429,-1.04821 z"
       id="path8791-0"
       inkscape:connector-curvature="0"
       sodipodi:nodetypes="ccccccccccc" />
    <path
       style="opacity:0.88500001;fill:#000000;fill-opacity:1;fill-rule:evenodd;stroke:none;stroke-width:1px;stroke-linecap:butt;stroke-linejoin:miter;stroke-opacity:1"
       d="m 509.623,756.37153 c -1.14734,-8.3e-4 -3.50555,-0.0147 -4.65289,-0.0155 -0.46457,-0.0217 -0.76095,-0.34776 -0.74926,-0.70844 0.002,-1.15072 0.03,-3.49811 0.0321,-4.64885 0.0238,-0.50389 0.64717,-0.82062 1.10549,-0.40878 l 1.50031,1.49072 3.69402,-3.70967 1.66779,1.66874 -3.69219,3.69649 1.53759,1.58709 c 0.33451,0.33918 0.0339,1.04974 -0.4429,1.04821 z"
       id="path8791-2"
       inkscape:connector-curvature="0"
       sodipodi:nodetypes="ccccccccccc" />
    <path
       style="opacity:0.88500001;fill:#000000;fill-opacity:1;fill-rule:evenodd;stroke:none;stroke-width:1px;stroke-linecap:butt;stroke-linejoin:miter;stroke-opacity:1"
       d="m 518.94878,756.37153 c 1.14733,-8.3e-4 3.50555,-0.0147 4.65288,-0.0155 0.46457,-0.0217 0.76096,-0.34776 0.74927,-0.70844 -0.002,-1.15074 -0.03,-3.49814 -0.0321,-4.64889 -0.0238,-0.5039 -0.64718,-0.82062 -1.10548,-0.40879 l -1.50032,1.49074 -3.69401,-3.7097 -1.66779,1.66875 3.69218,3.69652 -1.53758,1.58711 c -0.33451,0.33918 -0.034,1.04974 0.4429,1.04821 z"
       id="path8791-0-9"
       inkscape:connector-curvature="0"
       sodipodi:nodetypes="ccccccccccc" />
  </g>
</svg>
