<?xml version="1.0" encoding="UTF-8" standalone="no"?>
<svg
   xmlns:dc="http://purl.org/dc/elements/1.1/"
   xmlns:cc="http://creativecommons.org/ns#"
   xmlns:rdf="http://www.w3.org/1999/02/22-rdf-syntax-ns#"
   xmlns:svg="http://www.w3.org/2000/svg"
   xmlns="http://www.w3.org/2000/svg"
   xmlns:sodipodi="http://sodipodi.sourceforge.net/DTD/sodipodi-0.dtd"
   xmlns:inkscape="http://www.inkscape.org/namespaces/inkscape"
   height="30"
   width="82"
   id="svg2"
   version="1.1"
   inkscape:version="0.91 r13725"
   sodipodi:docname="copy.svg">
  <metadata
     id="metadata10">
    <rdf:RDF>
      <cc:Work
         rdf:about="">
        <dc:format>image/svg+xml</dc:format>
        <dc:type
           rdf:resource="http://purl.org/dc/dcmitype/StillImage" />
        <dc:title />
      </cc:Work>
    </rdf:RDF>
  </metadata>
  <defs
     id="defs8" />
  <sodipodi:namedview
     pagecolor="#ffffff"
     bordercolor="#666666"
     borderopacity="1"
     objecttolerance="10"
     gridtolerance="10"
     guidetolerance="10"
     inkscape:pageopacity="0"
     inkscape:pageshadow="2"
     inkscape:window-width="1280"
     inkscape:window-height="1001"
     id="namedview6"
     showgrid="false"
     inkscape:zoom="7.2407734"
     inkscape:cx="-17.893988"
     inkscape:cy="5.6504331"
     inkscape:window-x="307"
     inkscape:window-y="-8"
     inkscape:window-maximized="1"
     inkscape:current-layer="svg2"
     inkscape:snap-global="false"
     fit-margin-top="0"
     fit-margin-left="0"
     fit-margin-right="0"
     fit-margin-bottom="0"
     showguides="true"
     inkscape:guide-bbox="true">
    <sodipodi:guide
       position="21.1835,38.969703"
       orientation="0,1"
       id="guide5972" />
  </sodipodi:namedview>
  <text
     xml:space="preserve"
     style="font-style:normal;font-weight:normal;font-size:40px;line-height:125%;font-family:sans-serif;letter-spacing:0px;word-spacing:0px;fill:#000000;fill-opacity:1;stroke:none;stroke-width:1px;stroke-linecap:butt;stroke-linejoin:miter;stroke-opacity:1"
     x="4195.082"
     y="21.58918"
     id="text3342"
     sodipodi:linespacing="125%"><tspan
       sodipodi:role="line"
       id="tspan3344"
       x="4195.082"
       y="21.58918" /></text>
  <flowRoot
     xml:space="preserve"
     id="flowRoot3346"
     style="font-style:normal;font-weight:normal;font-size:40px;line-height:125%;font-family:sans-serif;letter-spacing:0px;word-spacing:0px;fill:#000000;fill-opacity:1;stroke:none;stroke-width:1px;stroke-linecap:butt;stroke-linejoin:miter;stroke-opacity:1"
     transform="translate(2473.7428,267.6766)"><flowRegion
       id="flowRegion3348"><rect
         id="rect3350"
         width="3170.2781"
         height="1727.1351"
         x="-243.42172"
         y="-176.53835" /></flowRegion><flowPara
       id="flowPara3352" /></flowRoot>  <g
     id="bg"
     transform="translate(0,-30.919102)" />
  <g
     id="frame"
     transform="translate(0,-30.919102)" />
  <g
     id="ui"
     transform="translate(0,-30.919102)" />
  <text
     xml:space="preserve"
     style="font-style:normal;font-weight:normal;font-size:40px;line-height:125%;font-family:sans-serif;letter-spacing:0px;word-spacing:0px;fill:#000000;fill-opacity:1;stroke:none;stroke-width:1px;stroke-linecap:butt;stroke-linejoin:miter;stroke-opacity:1"
     x="1517.5881"
     y="-1448.4988"
     id="text3342-3"
     sodipodi:linespacing="125%"><tspan
       sodipodi:role="line"
       id="tspan3344-8"
       x="1517.5881"
       y="-1448.4988" /></text>
  <flowRoot
     xml:space="preserve"
     id="flowRoot3346-9"
     style="font-style:normal;font-weight:normal;font-size:40px;line-height:125%;font-family:sans-serif;letter-spacing:0px;word-spacing:0px;fill:#000000;fill-opacity:1;stroke:none;stroke-width:1px;stroke-linecap:butt;stroke-linejoin:miter;stroke-opacity:1"
     transform="translate(-203.7511,-1202.4115)"><flowRegion
       id="flowRegion3348-8"><rect
         id="rect3350-8"
         width="3170.2781"
         height="1727.1351"
         x="-243.42172"
         y="-176.53835" /></flowRegion><flowPara
       id="flowPara3352-7" /></flowRoot>  <path
     id="path5637-0"
     d="M 81,30 1,30 C 0.4,30 0,29.6 0,29 L 0,1 C 0,0.4 0.4,0 1,0 l 80,0 c 0.6,0 1,0.4 1,1 l 0,28 c 0,0.6 -0.4,1 -1,1 z"
     inkscape:connector-curvature="0"
     style="fill:#6a6a6a;fill-opacity:1" />
  <text
     xml:space="preserve"
     style="font-style:normal;font-variant:normal;font-weight:normal;font-stretch:normal;font-size:17.5px;line-height:125%;font-family:Tahoma;-inkscape-font-specification:'Tahoma, Normal';text-align:start;letter-spacing:0px;word-spacing:0px;writing-mode:lr-tb;text-anchor:start;fill:#ffffff;fill-opacity:1;stroke:none;stroke-width:1px;stroke-linecap:butt;stroke-linejoin:miter;stroke-opacity:1"
     x="38.409718"
     y="20.428017"
     id="text5805"
     sodipodi:linespacing="125%"><tspan
       sodipodi:role="line"
       id="tspan5807"
       x="38.409718"
       y="20.428017"
       style="font-style:normal;font-variant:normal;font-weight:normal;font-stretch:normal;font-size:13.75px;line-height:125%;font-family:Tahoma;-inkscape-font-specification:'Tahoma, Normal';text-align:start;writing-mode:lr-tb;text-anchor:start;fill:#ffffff">Copy</tspan></text>
  <line
     id="line5653-3"
     y2="27.000008"
     x2="30.00005"
     y1="3.0000074"
     x1="30.00005"
     stroke-miterlimit="10"
     style="fill:none;stroke:#ffffff;stroke-width:0.97009999;stroke-miterlimit:10" />
  <path
     style="fill:#ffffff;stroke:#fffff0;stroke-opacity:0;fill-opacity:1"
     inkscape:connector-curvature="0"
     id="path3041"
     d="m 24.12666,9.285733 q 0.446429,0 0.758929,0.312467 0.3125,0.312533 0.3125,0.758933 l 0,13.571467 q 0,0.4464 -0.3125,0.758867 Q 24.573089,25 24.12666,25 l -10.714285,0 q -0.446429,0 -0.758929,-0.312533 -0.3125,-0.312467 -0.3125,-0.758867 l 0,-3.214333 -6.0714287,0 q -0.4464287,0 -0.7589287,-0.312467 -0.3125,-0.312533 -0.3125,-0.758933 l 0,-7.5 q 0,-0.446467 0.223214,-0.982134 Q 5.6445173,10.625 5.9570173,10.312467 L 10.510589,5.758933 Q 10.823089,5.4464 11.358803,5.2232 11.894518,5 12.340946,5 l 4.642857,0 q 0.446429,0 0.758929,0.312467 0.3125,0.312533 0.3125,0.758933 l 0,3.660733 q 0.758928,-0.4464 1.428571,-0.4464 l 4.642857,0 z m -6.071428,2.3772 L 14.718178,15 l 3.337054,0 0,-3.337067 z M 10.912375,7.3772 l -3.3370544,3.337067 3.3370544,0 0,-3.337067 z m 2.1875,7.221 3.526785,-3.5268 0,-4.6428 -4.285714,0 0,4.6428 q 0,0.446467 -0.3125,0.758933 -0.3125,0.312534 -0.758928,0.312534 l -4.6428581,0 0,7.142866 5.7142861,0 0,-2.857133 q 0,-0.446467 0.223214,-0.9822 0.223215,-0.535667 0.535715,-0.8482 z m 10.669643,8.9732 0,-12.857133 -4.285715,0 0,4.642866 q 0,0.446467 -0.3125,0.758934 -0.3125,0.312533 -0.758928,0.312533 l -4.642857,0 0,7.1428 10,0 z" />
</svg>
