<?xml version="1.0" encoding="UTF-8" standalone="no"?>
<!-- Created with Inkscape (http://www.inkscape.org/) -->

<svg
   xmlns:dc="http://purl.org/dc/elements/1.1/"
   xmlns:cc="http://creativecommons.org/ns#"
   xmlns:rdf="http://www.w3.org/1999/02/22-rdf-syntax-ns#"
   xmlns:svg="http://www.w3.org/2000/svg"
   xmlns="http://www.w3.org/2000/svg"
   xmlns:sodipodi="http://sodipodi.sourceforge.net/DTD/sodipodi-0.dtd"
   xmlns:inkscape="http://www.inkscape.org/namespaces/inkscape"
   width="5.6039119mm"
   height="5.6037788mm"
   viewBox="0 0 19.856381 19.855909"
   id="svg7484"
   version="1.1"
   inkscape:version="0.91 r13725"
   sodipodi:docname="fit_to_window.svg">
  <defs
     id="defs7486" />
  <sodipodi:namedview
     id="base"
     pagecolor="#ffffff"
     bordercolor="#666666"
     borderopacity="1.0"
     inkscape:pageopacity="0.0"
     inkscape:pageshadow="2"
     inkscape:zoom="3.959798"
     inkscape:cx="-9.4759441"
     inkscape:cy="7.6947694"
     inkscape:document-units="px"
     inkscape:current-layer="layer1"
     showgrid="false"
     fit-margin-top="0"
     fit-margin-left="0"
     fit-margin-right="0"
     fit-margin-bottom="0"
     inkscape:window-width="1280"
     inkscape:window-height="634"
     inkscape:window-x="-8"
     inkscape:window-y="-8"
     inkscape:window-maximized="1" />
  <metadata
     id="metadata7489">
    <rdf:RDF>
      <cc:Work
         rdf:about="">
        <dc:format>image/svg+xml</dc:format>
        <dc:type
           rdf:resource="http://purl.org/dc/dcmitype/StillImage" />
        <dc:title></dc:title>
      </cc:Work>
    </rdf:RDF>
  </metadata>
  <g
     inkscape:label="Layer 1"
     inkscape:groupmode="layer"
     id="layer1"
     transform="translate(-561.50038,-516.71996)">
    <path
       style="opacity:0.88500001;fill:#000000;fill-opacity:1;fill-rule:evenodd;stroke:none;stroke-width:1px;stroke-linecap:butt;stroke-linejoin:miter;stroke-opacity:1"
       d="m 564.09784,524.81753 c 1.14734,-8.4e-4 3.50556,-0.0146 4.6529,-0.0156 0.46457,-0.0217 0.76096,-0.34773 0.74926,-0.70838 -0.002,-1.15063 -0.03,-3.49782 -0.032,-4.64845 -0.0238,-0.50387 -0.64717,-0.82057 -1.10549,-0.40877 l -1.50032,1.49061 -3.69401,-3.70937 -1.6678,1.66862 3.6922,3.69618 -1.53759,1.58696 c -0.33452,0.33914 -0.0339,1.04966 0.4429,1.04813 z"
       id="path8791"
       inkscape:connector-curvature="0"
       sodipodi:nodetypes="ccccccccccc" />
    <path
       style="opacity:0.88500001;fill:#000000;fill-opacity:1;fill-rule:evenodd;stroke:none;stroke-width:1px;stroke-linecap:butt;stroke-linejoin:miter;stroke-opacity:1"
       d="m 578.7593,524.71992 c -1.14733,-8.4e-4 -3.50555,-0.0146 -4.65289,-0.0156 -0.46458,-0.0217 -0.76097,-0.34773 -0.74928,-0.70838 0.002,-1.15062 0.03,-3.49782 0.032,-4.64846 0.0238,-0.50385 0.64718,-0.82056 1.1055,-0.40875 l 1.50031,1.49059 3.69402,-3.70936 1.6678,1.66862 -3.69219,3.69617 1.53759,1.58697 c 0.33451,0.33914 0.034,1.04965 -0.44291,1.04812 z"
       id="path8791-0"
       inkscape:connector-curvature="0"
       sodipodi:nodetypes="ccccccccccc" />
    <path
       style="opacity:0.88500001;fill:#000000;fill-opacity:1;fill-rule:evenodd;stroke:none;stroke-width:1px;stroke-linecap:butt;stroke-linejoin:miter;stroke-opacity:1"
       d="m 564.09784,528.5759 c 1.14734,8.3e-4 3.50556,0.0148 4.6529,0.0155 0.46457,0.0217 0.76096,0.34773 0.74926,0.70839 -0.002,1.15064 -0.03,3.49788 -0.032,4.64851 -0.0238,0.50387 -0.64717,0.82059 -1.10549,0.40877 l -1.50032,-1.49061 -3.69401,3.70941 -1.6678,-1.66863 3.6922,-3.69624 -1.53759,-1.58698 c -0.33452,-0.33915 -0.0339,-1.04966 0.4429,-1.04814 z"
       id="path8791-2"
       inkscape:connector-curvature="0"
       sodipodi:nodetypes="ccccccccccc" />
    <path
       style="opacity:0.88500001;fill:#000000;fill-opacity:1;fill-rule:evenodd;stroke:none;stroke-width:1px;stroke-linecap:butt;stroke-linejoin:miter;stroke-opacity:1"
       d="m 578.7593,528.47824 c -1.14733,8.3e-4 -3.50555,0.0148 -4.65289,0.0155 -0.46458,0.0217 -0.76097,0.34773 -0.74928,0.70838 0.002,1.15065 0.03,3.49788 0.032,4.64852 0.0238,0.50387 0.64718,0.8206 1.1055,0.40876 l 1.50031,-1.4906 3.69402,3.70941 1.6678,-1.66864 -3.69219,-3.69623 1.53759,-1.58698 c 0.33451,-0.33915 0.034,-1.04966 -0.44291,-1.04814 z"
       id="path8791-0-9"
       inkscape:connector-curvature="0"
       sodipodi:nodetypes="ccccccccccc" />
  </g>
</svg>
