<?xml version="1.0" encoding="UTF-8" standalone="no"?>
<!-- Created with Inkscape (http://www.inkscape.org/) -->

<svg
   xmlns:dc="http://purl.org/dc/elements/1.1/"
   xmlns:cc="http://creativecommons.org/ns#"
   xmlns:rdf="http://www.w3.org/1999/02/22-rdf-syntax-ns#"
   xmlns:svg="http://www.w3.org/2000/svg"
   xmlns="http://www.w3.org/2000/svg"
   xmlns:sodipodi="http://sodipodi.sourceforge.net/DTD/sodipodi-0.dtd"
   xmlns:inkscape="http://www.inkscape.org/namespaces/inkscape"
   width="23.142221mm"
   height="8.4666662mm"
   viewBox="0 0 81.999997 29.999998"
   id="svg4794"
   version="1.1"
   inkscape:version="0.91 r13725"
   sodipodi:docname="online.svg">
  <defs
     id="defs4796" />
  <sodipodi:namedview
     id="base"
     pagecolor="#ffffff"
     bordercolor="#666666"
     borderopacity="1.0"
     inkscape:pageopacity="0.0"
     inkscape:pageshadow="2"
     inkscape:zoom="10.121951"
     inkscape:cx="41"
     inkscape:cy="15"
     inkscape:document-units="px"
     inkscape:current-layer="layer1"
     showgrid="false"
     fit-margin-top="0"
     fit-margin-left="0"
     fit-margin-right="0"
     fit-margin-bottom="0"
     inkscape:window-width="1280"
     inkscape:window-height="1001"
     inkscape:window-x="307"
     inkscape:window-y="-8"
     inkscape:window-maximized="1" />
  <metadata
     id="metadata4799">
    <rdf:RDF>
      <cc:Work
         rdf:about="">
        <dc:format>image/svg+xml</dc:format>
        <dc:type
           rdf:resource="http://purl.org/dc/dcmitype/StillImage" />
        <dc:title></dc:title>
      </cc:Work>
    </rdf:RDF>
  </metadata>
  <g
     inkscape:label="Layer 1"
     inkscape:groupmode="layer"
     id="layer1"
     transform="translate(78.142857,-488.79078)">
    <path
       id="path5637-0-2"
       d="m 2.857143,518.79078 -80,0 c -0.6,0 -1,-0.4 -1,-1 l 0,-28 c 0,-0.6 0.4,-1 1,-1 l 80,0 c 0.6,0 1,0.4 1,1 l 0,28 c 0,0.6 -0.4,1 -1,1 z"
       inkscape:connector-curvature="0"
       style="fill:#c8a600;fill-opacity:1" />
    <text
       xml:space="preserve"
       style="font-style:normal;font-variant:normal;font-weight:normal;font-stretch:normal;font-size:17.5px;line-height:125%;font-family:Tahoma;-inkscape-font-specification:'Tahoma, Normal';text-align:start;letter-spacing:0px;word-spacing:0px;writing-mode:lr-tb;text-anchor:start;fill:#ffffff;fill-opacity:1;stroke:none;stroke-width:1px;stroke-linecap:butt;stroke-linejoin:miter;stroke-opacity:1"
       x="-41.733143"
       y="509.21881"
       id="text5805-2"
       sodipodi:linespacing="125%"><tspan
         sodipodi:role="line"
         id="tspan5807-7"
         x="-41.733143"
         y="509.21881"
         style="font-style:normal;font-variant:normal;font-weight:normal;font-stretch:normal;font-size:13.75px;line-height:125%;font-family:Tahoma;-inkscape-font-specification:'Tahoma, Normal';text-align:start;writing-mode:lr-tb;text-anchor:start;fill:#ffffff">Online</tspan></text>
    <line
       id="line5653-3-9"
       y2="515.79077"
       x2="-48.142803"
       y1="491.7908"
       x1="-48.142803"
       stroke-miterlimit="10"
       style="fill:none;stroke:#ffffff;stroke-width:0.97009999;stroke-miterlimit:10" />
    <path
       id="path3355"
       d="m -67.919972,509.81045 c 0,0.86831 -0.217061,2.17078 -0.651217,2.17078 l 11.505122,0 c 1.0854,0 1.30246,-1.08541 1.30246,-2.17078 l 0,-9.98556 -12.156365,0 0,9.98556 z m 13.892965,0 c 0,1.89818 -1.30248,3.9074 -2.82204,3.9074 l -13.675863,0 c -1.139044,0 -2.170779,-1.79216 -2.170779,-3.69034 l 0,-9.33434 3.039091,0 0,-2.6049 15.629591,0 0,11.72218 z m -16.932057,-7.38066 0,7.81481 c 0,1.13879 0.271532,1.84514 0.651215,1.84514 0.379681,0 0.651216,-0.70635 0.651216,-1.84514 l 0,-7.81481 -1.302431,0 z m 9.117276,1.30251 5.209871,0 0,6.07815 -5.209871,0 0,-6.07815 z m -5.209872,-2.60494 10.419743,0 0,1.30247 -10.419743,0 0,-1.30247 z m 0,2.60494 4.341525,0 0,0.86827 -4.341525,0 0,-0.86827 z m 0,1.73662 4.341525,0 0,0.86828 -4.341525,0 0,-0.86828 z m 0,1.73662 4.341525,0 0,0.86828 -4.341525,0 0,-0.86828 z m 0,1.73663 4.341525,0 0,0.86828 -4.341525,0 0,-0.86828 z"
       inkscape:connector-curvature="0"
       style="fill:#ffffff;fill-opacity:1" />
    <path
       style="fill:#ffffff;fill-opacity:1;fill-rule:evenodd;stroke:#000000;stroke-width:0.01751087px;stroke-linecap:butt;stroke-linejoin:miter;stroke-opacity:1"
       d="m -52.490877,498.66738 1.68731,3.66498 1.02146,-9.57765 -9.42401,2.93955 4.35361,1.26039 c 0,0 -1.96541,2.79315 -9.312354,10.15366 9.113354,-4.70625 11.673984,-8.44093 11.673984,-8.44093 z"
       id="path3519"
       inkscape:connector-curvature="0"
       sodipodi:nodetypes="ccccccc" />
  </g>
</svg>
