<?xml version="1.0" encoding="UTF-8" standalone="no"?>
<svg
   xmlns:dc="http://purl.org/dc/elements/1.1/"
   xmlns:cc="http://creativecommons.org/ns#"
   xmlns:rdf="http://www.w3.org/1999/02/22-rdf-syntax-ns#"
   xmlns:svg="http://www.w3.org/2000/svg"
   xmlns="http://www.w3.org/2000/svg"
   xmlns:sodipodi="http://sodipodi.sourceforge.net/DTD/sodipodi-0.dtd"
   xmlns:inkscape="http://www.inkscape.org/namespaces/inkscape"
   height="30"
   width="82"
   id="svg2"
   version="1.1"
   inkscape:version="0.91 r13725"
   sodipodi:docname="online.svg">
  <metadata
     id="metadata10">
    <rdf:RDF>
      <cc:Work
         rdf:about="">
        <dc:format>image/svg+xml</dc:format>
        <dc:type
           rdf:resource="http://purl.org/dc/dcmitype/StillImage" />
        <dc:title></dc:title>
      </cc:Work>
    </rdf:RDF>
  </metadata>
  <defs
     id="defs8" />
  <sodipodi:namedview
     pagecolor="#ffffff"
     bordercolor="#666666"
     borderopacity="1"
     objecttolerance="10"
     gridtolerance="10"
     guidetolerance="10"
     inkscape:pageopacity="0"
     inkscape:pageshadow="2"
     inkscape:window-width="917"
     inkscape:window-height="553"
     id="namedview6"
     showgrid="false"
     inkscape:zoom="2.56"
     inkscape:cx="44.506422"
     inkscape:cy="21.321309"
     inkscape:window-x="4"
     inkscape:window-y="1015"
     inkscape:window-maximized="0"
     inkscape:current-layer="svg2"
     inkscape:snap-global="false"
     fit-margin-top="0"
     fit-margin-left="0"
     fit-margin-right="0"
     fit-margin-bottom="0"
     showguides="true"
     inkscape:guide-bbox="true">
    <sodipodi:guide
       position="-61.8165,38.969703"
       orientation="0,1"
       id="guide5972" />
  </sodipodi:namedview>
  <path
     id="path5637-0-2"
     d="M 81,30 1,30 C 0.4,30 0,29.6 0,29 L 0,1 C 0,0.4 0.4,0 1,0 l 80,0 c 0.6,0 1,0.4 1,1 l 0,28 c 0,0.6 -0.4,1 -1,1 z"
     inkscape:connector-curvature="0"
     style="fill:#3b9986;fill-opacity:1" />
  <text
     xml:space="preserve"
     style="font-style:normal;font-variant:normal;font-weight:normal;font-stretch:normal;font-size:17.5px;line-height:125%;font-family:Tahoma;-inkscape-font-specification:'Tahoma, Normal';text-align:start;letter-spacing:0px;word-spacing:0px;writing-mode:lr-tb;text-anchor:start;fill:#ffffff;fill-opacity:1;stroke:none;stroke-width:1px;stroke-linecap:butt;stroke-linejoin:miter;stroke-opacity:1"
     x="36.409714"
     y="20.428017"
     id="text5805-2"
     sodipodi:linespacing="125%"><tspan
       sodipodi:role="line"
       id="tspan5807-7"
       x="36.409714"
       y="20.428017"
       style="font-style:normal;font-variant:normal;font-weight:normal;font-stretch:normal;font-size:13.75px;line-height:125%;font-family:Tahoma;-inkscape-font-specification:'Tahoma, Normal';text-align:start;writing-mode:lr-tb;text-anchor:start;fill:#ffffff">Online</tspan></text>
  <line
     id="line5653-3-9"
     y2="27.000008"
     x2="30.000053"
     y1="3.0000074"
     x1="30.000053"
     stroke-miterlimit="10"
     style="fill:none;stroke:#ffffff;stroke-width:0.97009999;stroke-miterlimit:10" />
  <path
     id="path3355"
     d="m 10.222885,21.019666 c 0,0.868312 -0.217061,2.17078 -0.651217,2.17078 l 11.505122,0 c 1.0854,0 1.30246,-1.085408 1.30246,-2.17078 l 0,-9.985553 -12.156365,0 0,9.985553 z m 13.892965,0 c 0,1.898188 -1.30248,3.907404 -2.82204,3.907404 l -13.675863,0 c -1.139044,0 -2.170779,-1.792156 -2.170779,-3.690344 l 0,-9.334337 3.039091,0 0,-2.604901 15.629591,0 0,11.722178 z m -16.932057,-7.380654 0,7.81481 c 0,1.138789 0.271532,1.845136 0.651215,1.845136 0.379681,0 0.651216,-0.706347 0.651216,-1.845136 l 0,-7.81481 -1.302431,0 z m 9.117276,1.302506 5.209871,0 0,6.078148 -5.209871,0 0,-6.078148 z m -5.209872,-2.604937 10.419743,0 0,1.302468 -10.419743,0 0,-1.302468 z m 0,2.604937 4.341525,0 0,0.868275 -4.341525,0 0,-0.868275 z m 0,1.736624 4.341525,0 0,0.868275 -4.341525,0 0,-0.868275 z m 0,1.736623 4.341525,0 0,0.868277 -4.341525,0 0,-0.868277 z m 0,1.736625 4.341525,0 0,0.868276 -4.341525,0 0,-0.868276 z"
     inkscape:connector-curvature="0"
     style="fill:#ffffff;fill-opacity:1" />
  <path
     style="fill:#ffffff;fill-opacity:1;fill-rule:evenodd;stroke:#000000;stroke-width:0.01751087px;stroke-linecap:butt;stroke-linejoin:miter;stroke-opacity:1"
     d="m 25.65198,9.876597 1.68731,3.664982 1.02146,-9.577645 -9.42401,2.939548 4.35361,1.260387 c 0,0 -1.96541,2.793153 -9.312354,10.153664 C 23.09135,13.611283 25.65198,9.876597 25.65198,9.876597 Z"
     id="path3519"
     inkscape:connector-curvature="0"
     sodipodi:nodetypes="ccccccc" />
</svg>
