<?xml version="1.0" encoding="UTF-8" standalone="no"?>
<!-- Created with Inkscape (http://www.inkscape.org/) -->

<svg
   xmlns:dc="http://purl.org/dc/elements/1.1/"
   xmlns:cc="http://creativecommons.org/ns#"
   xmlns:rdf="http://www.w3.org/1999/02/22-rdf-syntax-ns#"
   xmlns:svg="http://www.w3.org/2000/svg"
   xmlns="http://www.w3.org/2000/svg"
   xmlns:sodipodi="http://sodipodi.sourceforge.net/DTD/sodipodi-0.dtd"
   xmlns:inkscape="http://www.inkscape.org/namespaces/inkscape"
   width="8.6525583mm"
   height="8.4666662mm"
   viewBox="0 0 30.658671 29.999998"
   id="svg2"
   version="1.1"
   inkscape:version="0.92.4 (5da689c313, 2019-01-14)"
   sodipodi:docname="person.svg">
  <defs
     id="defs4" />
  <sodipodi:namedview
     id="base"
     pagecolor="#ffffff"
     bordercolor="#666666"
     borderopacity="1.0"
     inkscape:pageopacity="0.0"
     inkscape:pageshadow="2"
     inkscape:zoom="15.839192"
     inkscape:cx="-2.0042538"
     inkscape:cy="18.198511"
     inkscape:document-units="px"
     inkscape:current-layer="layer1"
     showgrid="false"
     fit-margin-top="0"
     fit-margin-left="0"
     fit-margin-right="0"
     fit-margin-bottom="0"
     inkscape:window-width="1920"
     inkscape:window-height="1005"
     inkscape:window-x="-9"
     inkscape:window-y="-9"
     inkscape:window-maximized="1" />
  <metadata
     id="metadata7">
    <rdf:RDF>
      <cc:Work
         rdf:about="">
        <dc:format>image/svg+xml</dc:format>
        <dc:type
           rdf:resource="http://purl.org/dc/dcmitype/StillImage" />
        <dc:title></dc:title>
      </cc:Work>
    </rdf:RDF>
  </metadata>
  <g
     inkscape:label="Layer 1"
     inkscape:groupmode="layer"
     id="layer1"
     transform="translate(-115.50775,-640.52472)">
    <g
       id="g4229"
       transform="matrix(0.0597528,0,0,0.0597528,108.60584,630.45899)"
       style="fill:#405398;fill-opacity:1">
      <path
         inkscape:connector-curvature="0"
         id="path3362"
         transform="translate(115.01556,167.97785)"
         d="m 257.01367,236.86719 a 256.58829,266.68982 0 0 1 18.94336,0.8164 256.58829,266.68982 0 0 0 -18.92578,-0.8164 256.58829,266.68982 0 0 0 -0.0176,0 z m -1.12305,0.0586 a 256.58829,266.68982 0 0 0 -115.53124,29.42969 256.58829,266.68982 0 0 1 115.53124,-29.42969 z m 29.72657,1.9375 a 256.58829,266.68982 0 0 1 16.39648,2.25586 256.58829,266.68982 0 0 0 -16.39648,-2.25586 z m 22.81445,3.72656 a 256.58829,266.68982 0 0 1 18.95703,4.64649 256.58829,266.68982 0 0 0 -18.95703,-4.64649 z m 22.56445,5.87696 a 256.58829,266.68982 0 0 1 21.01758,7.51758 256.58829,266.68982 0 0 0 -21.01758,-7.51758 z m 22.09766,8.01562 A 256.58829,266.68982 0 0 1 375.47266,267.19336 177.68271,173.84845 0 0 1 256.99414,311.73047 177.68271,173.84845 0 0 1 138.60547,267.23633 256.58829,266.68982 0 0 0 0.4921875,502.54688 l 513.0917925,0 A 256.58829,266.68982 0 0 0 353.09375,256.48242 Z"
         style="opacity:1;fill:#405398;fill-rule:evenodd;stroke:none;stroke-width:0.98091358px;stroke-linecap:butt;stroke-linejoin:miter;stroke-opacity:1;fill-opacity:1" />
      <ellipse
         ry="137.40326"
         rx="140.43372"
         cy="305.8595"
         cx="372.04724"
         id="path3358"
         style="opacity:1;fill:#405398;fill-rule:evenodd;stroke:none;stroke-width:0.95495909px;stroke-linecap:butt;stroke-linejoin:miter;stroke-opacity:1;fill-opacity:1" />
    </g>
  </g>
</svg>
