<?xml version="1.0" encoding="UTF-8" standalone="no"?>
<!-- Created with Inkscape (http://www.inkscape.org/) -->

<svg
   xmlns:dc="http://purl.org/dc/elements/1.1/"
   xmlns:cc="http://creativecommons.org/ns#"
   xmlns:rdf="http://www.w3.org/1999/02/22-rdf-syntax-ns#"
   xmlns:svg="http://www.w3.org/2000/svg"
   xmlns="http://www.w3.org/2000/svg"
   xmlns:sodipodi="http://sodipodi.sourceforge.net/DTD/sodipodi-0.dtd"
   xmlns:inkscape="http://www.inkscape.org/namespaces/inkscape"
   width="9.0972281mm"
   height="8.4666662mm"
   viewBox="0 0 32.234273 29.999998"
   id="svg4233"
   version="1.1"
   inkscape:version="0.91 r13725"
   sodipodi:docname="topic.svg">
  <defs
     id="defs4235" />
  <sodipodi:namedview
     id="base"
     pagecolor="#ffffff"
     bordercolor="#666666"
     borderopacity="1.0"
     inkscape:pageopacity="0.0"
     inkscape:pageshadow="2"
     inkscape:zoom="7.9195959"
     inkscape:cx="35.505678"
     inkscape:cy="4.0735431"
     inkscape:document-units="px"
     inkscape:current-layer="layer1"
     showgrid="false"
     fit-margin-top="0"
     fit-margin-left="0"
     fit-margin-right="0"
     fit-margin-bottom="0"
     inkscape:window-width="1280"
     inkscape:window-height="1001"
     inkscape:window-x="307"
     inkscape:window-y="-8"
     inkscape:window-maximized="1" />
  <metadata
     id="metadata4238">
    <rdf:RDF>
      <cc:Work
         rdf:about="">
        <dc:format>image/svg+xml</dc:format>
        <dc:type
           rdf:resource="http://purl.org/dc/dcmitype/StillImage" />
        <dc:title />
      </cc:Work>
    </rdf:RDF>
  </metadata>
  <g
     inkscape:label="Layer 1"
     inkscape:groupmode="layer"
     id="layer1"
     transform="translate(1007.3457,-715.24963)">
    <path
       id="path4243"
       d="m -1007.2862,735.31288 q 0.1725,-0.87981 0.9057,-1.47498 0.7332,-0.59517 1.6302,-0.59517 l 5.26168,0 1.2766,-5.9862 -4.79588,0 q -0.9833,0 -1.6216,-0.75906 -0.6038,-0.7763 -0.3968,-1.79413 0.1725,-0.89707 0.8971,-1.48361 0.7245,-0.58655 1.6216,-0.58655 l 5.26165,0 1.12134,-5.29614 q 0.18976,-0.89707 0.92294,-1.49224 0.73318,-0.59517 1.63025,-0.59517 1.03507,0 1.63887,0.75906 0.6038,0.75905 0.37953,1.79413 l -1.01783,4.83036 5.9172,0 1.12133,-5.29614 q 0.18976,-0.89707 0.91432,-1.49224 0.72455,-0.59517 1.62162,-0.59517 1.03508,0 1.63887,0.75906 0.62105,0.72455 0.39678,1.79413 l -1.01782,4.83036 4.7786,0 q 1.00058,0 1.63888,0.75906 0.60379,0.77631 0.39678,1.79414 -0.17252,0.89706 -0.89707,1.48361 -0.72455,0.58654 -1.62162,0.58654 l -5.26165,0 -1.29384,5.9862 4.79586,0 q 1.00057,0 1.63887,0.75906 0.60379,0.7763 0.39678,1.81138 -0.18976,0.89707 -0.90569,1.48361 -0.71593,0.58655 -1.613,0.58655 l -5.29615,0 -1.10408,5.29614 q -0.18976,0.89707 -0.91432,1.48362 -0.72455,0.58654 -1.62162,0.58654 -1.00057,0 -1.63887,-0.74181 -0.6038,-0.7763 -0.39678,-1.79413 l 1.03508,-4.83036 -5.93445,0 -1.13859,5.29614 q -0.18976,0.89707 -0.90569,1.48362 -0.71593,0.58654 -1.61299,0.58654 -1.00059,0 -1.63889,-0.74181 -0.6038,-0.7763 -0.3968,-1.79413 l 1.0351,-4.83036 -4.7958,0 q -1.0179,0 -1.6389,-0.77631 -0.6211,-0.72456 -0.3968,-1.79414 z m 12.47268,-2.07015 5.9172,0 1.27659,-5.9862 -5.93444,0 z"
       inkscape:connector-curvature="0" />
    <path
       inkscape:connector-curvature="0"
       d="m -1007.2862,735.31288 q 0.1725,-0.87981 0.9057,-1.47498 0.7332,-0.59517 1.6302,-0.59517 l 5.26168,0 1.2766,-5.9862 -4.79588,0 q -0.9833,0 -1.6216,-0.75906 -0.6038,-0.7763 -0.3968,-1.79413 0.1725,-0.89707 0.8971,-1.48361 0.7245,-0.58655 1.6216,-0.58655 l 5.26165,0 1.12134,-5.29614 q 0.18976,-0.89707 0.92294,-1.49224 0.73318,-0.59517 1.63025,-0.59517 1.03507,0 1.63887,0.75906 0.6038,0.75905 0.37953,1.79413 l -1.01783,4.83036 5.9172,0 1.12133,-5.29614 q 0.18976,-0.89707 0.91432,-1.49224 0.72455,-0.59517 1.62162,-0.59517 1.03508,0 1.63887,0.75906 0.62105,0.72455 0.39678,1.79413 l -1.01782,4.83036 4.7786,0 q 1.00058,0 1.63888,0.75906 0.60379,0.77631 0.39678,1.79414 -0.17252,0.89706 -0.89707,1.48361 -0.72455,0.58654 -1.62162,0.58654 l -5.26165,0 -1.29384,5.9862 4.79586,0 q 1.00057,0 1.63887,0.75906 0.60379,0.7763 0.39678,1.81138 -0.18976,0.89707 -0.90569,1.48361 -0.71593,0.58655 -1.613,0.58655 l -5.29615,0 -1.10408,5.29614 q -0.18976,0.89707 -0.91432,1.48362 -0.72455,0.58654 -1.62162,0.58654 -1.00057,0 -1.63887,-0.74181 -0.6038,-0.7763 -0.39678,-1.79413 l 1.03508,-4.83036 -5.93445,0 -1.13859,5.29614 q -0.18976,0.89707 -0.90569,1.48362 -0.71593,0.58654 -1.61299,0.58654 -1.00059,0 -1.63889,-0.74181 -0.6038,-0.7763 -0.3968,-1.79413 l 1.0351,-4.83036 -4.7958,0 q -1.0179,0 -1.6389,-0.77631 -0.6211,-0.72456 -0.3968,-1.79414 z m 12.47268,-2.07015 5.9172,0 1.27659,-5.9862 -5.93444,0 z"
       id="path4252"
       style="fill:#405398;fill-opacity:1" />
  </g>
</svg>
