<?xml version="1.0" encoding="UTF-8" standalone="no"?>
<svg
   xmlns:dc="http://purl.org/dc/elements/1.1/"
   xmlns:cc="http://creativecommons.org/ns#"
   xmlns:rdf="http://www.w3.org/1999/02/22-rdf-syntax-ns#"
   xmlns:svg="http://www.w3.org/2000/svg"
   xmlns="http://www.w3.org/2000/svg"
   xmlns:sodipodi="http://sodipodi.sourceforge.net/DTD/sodipodi-0.dtd"
   xmlns:inkscape="http://www.inkscape.org/namespaces/inkscape"
   height="30"
   width="82"
   id="svg2"
   version="1.1"
   inkscape:version="0.91 r13725"
   sodipodi:docname="tweet.svg">
  <metadata
     id="metadata10">
    <rdf:RDF>
      <cc:Work
         rdf:about="">
        <dc:format>image/svg+xml</dc:format>
        <dc:type
           rdf:resource="http://purl.org/dc/dcmitype/StillImage" />
        <dc:title></dc:title>
      </cc:Work>
    </rdf:RDF>
  </metadata>
  <defs
     id="defs8" />
  <sodipodi:namedview
     pagecolor="#ffffff"
     bordercolor="#666666"
     borderopacity="1"
     objecttolerance="10"
     gridtolerance="10"
     guidetolerance="10"
     inkscape:pageopacity="0"
     inkscape:pageshadow="2"
     inkscape:window-width="1280"
     inkscape:window-height="1001"
     id="namedview6"
     showgrid="false"
     inkscape:zoom="7.2407734"
     inkscape:cx="37.227663"
     inkscape:cy="-47.327315"
     inkscape:window-x="307"
     inkscape:window-y="-8"
     inkscape:window-maximized="1"
     inkscape:current-layer="svg2"
     inkscape:snap-global="false"
     fit-margin-top="0"
     fit-margin-left="0"
     fit-margin-right="0"
     fit-margin-bottom="0"
     showguides="true"
     inkscape:guide-bbox="true">
    <sodipodi:guide
       position="-61.8165,8.0506008"
       orientation="0,1"
       id="guide5972" />
  </sodipodi:namedview>
  <path
     id="path5657"
     d="M 81,30 1,30 C 0.4,30 0,29.6 0,29 L 0,1 C 0,0.4 0.4,0 1,0 l 80,0 c 0.6,0 1,0.4 1,1 l 0,28 c 0,0.6 -0.4,1 -1,1 z"
     inkscape:connector-curvature="0"
     style="fill:#00aced;fill-opacity:1" />
  <text
     xml:space="preserve"
     style="font-style:normal;font-variant:normal;font-weight:normal;font-stretch:normal;font-size:17.5px;line-height:125%;font-family:Tahoma;-inkscape-font-specification:'Tahoma, Normal';text-align:start;letter-spacing:0px;word-spacing:0px;writing-mode:lr-tb;text-anchor:start;fill:#ffffff;fill-opacity:1;stroke:none;stroke-width:1px;stroke-linecap:butt;stroke-linejoin:miter;stroke-opacity:1"
     x="37.506653"
     y="19.796947"
     id="text5805-0-1"
     sodipodi:linespacing="125%"><tspan
       sodipodi:role="line"
       id="tspan5807-5-6"
       x="37.506653"
       y="19.796947"
       style="font-style:normal;font-variant:normal;font-weight:normal;font-stretch:normal;font-size:13.75px;line-height:125%;font-family:Tahoma;-inkscape-font-specification:'Tahoma, Normal';text-align:start;writing-mode:lr-tb;text-anchor:start;fill:#ffffff">Tweet</tspan></text>
  <text
     xml:space="preserve"
     style="font-style:normal;font-weight:normal;font-size:40px;line-height:125%;font-family:sans-serif;letter-spacing:0px;word-spacing:0px;fill:#000000;fill-opacity:1;stroke:none;stroke-width:1px;stroke-linecap:butt;stroke-linejoin:miter;stroke-opacity:1"
     x="4112.082"
     y="52.508282"
     id="text3342"
     sodipodi:linespacing="125%"><tspan
       sodipodi:role="line"
       id="tspan3344"
       x="4112.082"
       y="52.508282" /></text>
  <flowRoot
     xml:space="preserve"
     id="flowRoot3346"
     style="font-style:normal;font-weight:normal;font-size:40px;line-height:125%;font-family:sans-serif;letter-spacing:0px;word-spacing:0px;fill:#000000;fill-opacity:1;stroke:none;stroke-width:1px;stroke-linecap:butt;stroke-linejoin:miter;stroke-opacity:1"
     transform="translate(2390.7428,298.5957)"><flowRegion
       id="flowRegion3348"><rect
         id="rect3350"
         width="3170.2781"
         height="1727.1351"
         x="-243.42172"
         y="-176.53835" /></flowRegion><flowPara
       id="flowPara3352" /></flowRoot>  <g
     id="bg"
     transform="translate(-83,0)" />
  <g
     id="frame"
     transform="translate(-83,0)" />
  <g
     id="ui"
     transform="translate(-83,0)" />
  <line
     id="line5671"
     y2="27.000011"
     x2="30.000053"
     y1="3.0000114"
     x1="30.000053"
     stroke-miterlimit="10"
     style="fill:none;stroke:#ffffff;stroke-width:0.97009999;stroke-miterlimit:10" />
  <path
     id="path5673"
     d="m 23.8,9.7 c -0.6,0.3 -1.3,0.5 -2,0.6 0.7,-0.4 1.3,-1.1 1.6,-2 C 22.7,8.7 22,9 21.2,9.2 20.6,8.5 19.6,8.1 18.6,8.1 c -1.9,0 -3.5,1.6 -3.5,3.5 0,0.3 0,0.5 0.1,0.8 C 12.3,12.3 9.7,10.8 7.9,8.7 7.6,9.2 7.4,9.8 7.4,10.5 7.4,11.7 8,12.8 9,13.4 8.4,13.4 7.9,13.2 7.4,13 c 0,0 0,0 0,0 0,1.7 1.2,3.1 2.8,3.5 -0.3,0.1 -0.6,0.1 -0.9,0.1 -0.2,0 -0.4,0 -0.7,-0.1 0.4,1.5 1.7,2.5 3.2,2.5 -1.2,0.9 -2.7,1.5 -4.4,1.5 -0.3,0 -0.6,0 -0.8,0 1.6,1 3.4,1.6 5.4,1.6 6.5,0 10,-5.4 10,-10 0,-0.2 0,-0.3 0,-0.5 0.7,-0.5 1.3,-1.1 1.8,-1.9 z"
     inkscape:connector-curvature="0"
     style="fill:#ffffff" />
  <text
     xml:space="preserve"
     style="font-style:normal;font-weight:normal;font-size:40px;line-height:125%;font-family:sans-serif;letter-spacing:0px;word-spacing:0px;fill:#000000;fill-opacity:1;stroke:none;stroke-width:1px;stroke-linecap:butt;stroke-linejoin:miter;stroke-opacity:1"
     x="1434.5881"
     y="-1417.5797"
     id="text3342-3"
     sodipodi:linespacing="125%"><tspan
       sodipodi:role="line"
       id="tspan3344-8"
       x="1434.5881"
       y="-1417.5797" /></text>
  <flowRoot
     xml:space="preserve"
     id="flowRoot3346-9"
     style="font-style:normal;font-weight:normal;font-size:40px;line-height:125%;font-family:sans-serif;letter-spacing:0px;word-spacing:0px;fill:#000000;fill-opacity:1;stroke:none;stroke-width:1px;stroke-linecap:butt;stroke-linejoin:miter;stroke-opacity:1"
     transform="translate(-286.7511,-1171.4924)"><flowRegion
       id="flowRegion3348-8"><rect
         id="rect3350-8"
         width="3170.2781"
         height="1727.1351"
         x="-243.42172"
         y="-176.53835" /></flowRegion><flowPara
       id="flowPara3352-7" /></flowRoot></svg>
